<?xml version="1.0" encoding="UTF-8" standalone="no"?>
<!-- Created with Inkscape (http://www.inkscape.org/) -->

<svg
   width="700.21753"
   height="969.62213"
   viewBox="0 0 700.21753 969.62213"
   version="1.1"
   id="svg5"
   xmlns="http://www.w3.org/2000/svg"
   xmlns:svg="http://www.w3.org/2000/svg">
  <defs
     id="defs2" />
  <g
     id="layer1"
     transform="translate(3.0054316e-5)">
    <path
       id="path2234"
       style="fill:#ba1a1a;fill-opacity:1;stroke-width:0.8"
       d="m 161.50021,382.34535 a 99.999999,99.999996 46.624346 0 0 -10.8907,37.40564 99.999999,99.999996 46.624346 0 0 91.44764,107.87645 99.999999,99.999996 46.624346 0 0 107.87646,-91.44763 99.999999,99.999996 46.624346 0 0 0.28379,-10.81401 z" />
    <path
       style="fill:#365475;fill-opacity:1;stroke-width:1.50359"
       id="rect225"
       width="717.36627"
       height="156.88902"
       x="-717.36627"
       y="-152.98772"
       transform="matrix(-0.97579182,-0.21870143,0,-1,0,0)"
       d="M -697.36627,-152.98772 H -20 a 20,20 45 0 1 20,20 V -16.098694 A 20,20 135 0 1 -20,3.9013062 h -677.36627 a 20,20 45 0 1 -20,-20.0000002 V -132.98772 a 20,20 135 0 1 20,-20 z" />
    <path
       style="fill:#365475;fill-opacity:1;stroke-width:1.50359"
       id="rect341"
       width="717.41364"
       height="157.10597"
       x="0.22285411"
       y="189.65807"
       transform="matrix(0.97572724,0.21898938,0,1,0,0)"
       d="m 20.222854,189.65807 677.413636,0 a 20,20 45 0 1 20,20 v 117.10597 a 20,20 135 0 1 -20,20 H 20.222854 a 20,20 45 0 1 -19.99999989,-20 V 209.65807 a 20,20 135 0 1 19.99999989,-20 z" />
    <path
       style="fill:#365475;fill-opacity:1;stroke-width:1.50359"
       id="rect341-9"
       width="843.88428"
       height="157.10597"
       x="-3.6231948e-05"
       y="-977.8844"
       transform="matrix(0.82949765,-0.55851021,0,-1,0,0)"
       d="M 19.999964,-977.8844 H 823.88424 a 20,20 45 0 1 20,20 v 117.10597 a 20,20 135 0 1 -20,20 l -803.884276,0 a 20,20 45 0 1 -20.000000231948,-20 V -957.8844 a 20,20 135 0 1 20.000000231948,-20 z" />
  </g>
</svg>
